<svg xmlns="http://www.w3.org/2000/svg" viewBox="0 0 512 512">
  <path d="M409.24 34.038H102.8c-37.98 0-68.742 30.77-68.742 68.72v306.463c0 37.96 30.76 68.742 68.74 68.742h306.443c37.93 0 68.7-30.78 68.7-68.74V102.758c0-37.95-30.77-68.722-68.7-68.722zM270.1 370.903v38.676h-30.78v-36.424c-23.685-.717-47.35-7.516-60.846-16.517l10.148-35.278c14.613 8.622 35.645 16.517 58.563 16.517 23.685 0 39.803-11.685 39.803-29.697 0-16.855-13.118-27.76-40.92-37.93-39.433-14.253-64.972-32.275-64.972-67.184 0-32.328 22.507-57.09 60.447-63.847V102.39h30.812v34.938c23.654.758 39.824 6.4 51.845 12.39l-10.168 34.54c-9.022-4.116-25.53-12.717-51.077-12.717-26.245 0-35.666 13.487-35.666 26.246 0 15.38 13.516 24.034 45.475 36.803 42.046 15.79 60.815 36.054 60.815 69.467-.01 31.928-22.19 60.078-63.478 66.846z"/>
</svg>
